<svg xmlns="http://www.w3.org/2000/svg" xmlns:xlink="http://www.w3.org/1999/xlink" width="500" height="373" viewBox="0 0 500 373" fill="none"><g opacity="0.92"  transform="translate(0 0)  rotate(0)"><g opacity="1"  transform="translate(0 327)  rotate(0)"><mask id="mask-0" fill="white"><path d="M0 1L500 1L500 0L0 0L0 1Z"  ></path></mask><g mask="url(#mask-0)"></g><g mask="url(#mask-0)"><path id="Fill 1" fill-rule="evenodd" style="fill:#E4E4DE" opacity="1" d="M500 0.63L500 0.38L0 0.38L0 0.63L500 0.63Z"></path></g></g><path id="Fill 4" fill-rule="evenodd" style="fill:#E4E4DE" opacity="1" d="M450 343.63L450 343.38L397 343.38L397 343.63L450 343.63Z"></path><path id="Fill 5" fill-rule="evenodd" style="fill:#E4E4DE" opacity="1" d="M332 340.63L332 340.38L273 340.38L273 340.63L332 340.63Z"></path><path id="Fill 6" fill-rule="evenodd" style="fill:#E4E4DE" opacity="1" d="M399 339.63L399 339.38L380 339.38L380 339.63L399 339.63Z"></path><path id="Fill 7" fill-rule="evenodd" style="fill:#D0D9E6" opacity="1" d="M143 336.63L143 336.38L100 336.38L100 336.63L143 336.63Z"></path><path id="Fill 8" fill-rule="evenodd" style="fill:#D0D9E6" opacity="1" d="M94 336.63L94 336.38L79 336.38L79 336.63L94 336.63Z"></path><path id="Fill 9" fill-rule="evenodd" style="fill:#D0D9E6" opacity="1" d="M185 340.63L185 340.38L131 340.38L131 340.63L185 340.63Z"></path><path id="Fill 11" fill-rule="evenodd" style="fill:#D0D9E6" opacity="1" d="M242.51,5.71v271.42c0,3.14 -2.55,5.72 -5.7,5.72h-193.1c-3.15,0 -5.71,-2.58 -5.71,-5.72v-271.42c0,-3.14 2.56,-5.71 5.71,-5.71h193.1c3.15,0 5.7,2.57 5.7,5.71zM43.72,282.6h193.1c3,0 5.44,-2.46 5.44,-5.45v-271.45c0,-2.99 -2.44,-5.45 -5.44,-5.45h-193.1c-3.02,0 -5.47,2.46 -5.47,5.45v271.45c0,2.99 2.45,5.45 5.47,5.45z"></path><path id="Fill 12" fill-rule="evenodd" style="fill:#D0D9E6" opacity="1" d="M459.51,5.71v271.42c0,3.14 -2.55,5.72 -5.7,5.72h-193.1c-3.15,0 -5.71,-2.58 -5.71,-5.72v-271.42c0,-3.14 2.56,-5.71 5.71,-5.71h193.1c3.15,0 5.7,2.57 5.7,5.71zM260.7,282.6h193.1c3.02,0 5.46,-2.46 5.46,-5.45v-271.45c0,-2.99 -2.44,-5.45 -5.46,-5.45h-193.1c-3,0 -5.45,2.46 -5.45,5.45v271.45c0,2.99 2.45,5.45 5.45,5.45z"></path><path id="Fill 14" fill-rule="evenodd" style="fill:#E3ECFA" opacity="1" d="M123 262.06L123 259.94C123 257.22 120.69 255 117.87 255L57.13 255C54.31 255 52 257.22 52 259.94L52 262.06C52 264.78 54.31 267 57.13 267L117.87 267C120.69 267 123 264.78 123 262.06Z"></path><path id="Fill 15" fill-rule="evenodd" style="fill:#DAE2F0" opacity="1" d="M61.18 267L50 327L59.82 327L71 267L61.18 267Z"></path><path id="Fill 16" fill-rule="evenodd" style="fill:#DAE2F0" opacity="1" d="M81.75 267L76 327L86.25 327L92 267L81.75 267Z"></path><path id="Fill 17" fill-rule="evenodd" style="fill:#DAE2F0" opacity="1" d="M114.18 327L124 327L112.83 267L103 267L114.18 327Z"></path><path id="Fill 18" fill-rule="evenodd" style="fill:#DAE2F0" opacity="1" d="M431 220L431 16L197 16L197 220L431 220Z"></path><path id="Fill 19" fill-rule="evenodd" style="fill:#E3ECFA" opacity="1" d="M437 220L437 16L200 16L200 220L437 220Z"></path><path id="Fill 20" fill-rule="evenodd" style="fill:#DDDED8" opacity="1" d="M431 223L431 219L197 219L197 223L431 223Z"></path><path id="Fill 21" fill-rule="evenodd" style="fill:#DAE2F0" opacity="1" d="M441 223L441 219L204 219L204 223L441 223Z"></path><path id="Fill 22" fill-rule="evenodd" style="fill:#FCFEFF" opacity="1" d="M428 213L428 22L210 22L210 213L428 213Z"></path><path id="Fill 23" fill-rule="evenodd" style="fill:#FFFFFE" opacity="1" d="M307.1 213L348 22L320.9 22L280 213L307.1 213Z"></path><path id="Fill 24" fill-rule="evenodd" style="fill:#FFFFFE" opacity="1" d="M275.1 213L316 22L288.9 22L248 213L275.1 213Z"></path><path id="Fill 25" fill-rule="evenodd" style="fill:#EAEAE5" opacity="1" d="M215 200.48C215 200.48 215.4 201 215.9 201L217.1 201C217.6 201 218 200.48 218 200.48L218 22.52C218 22.52 217.6 22 217.1 22L215.9 22C215.4 22 215 22.52 215 22.52L215 200.48Z"></path><path id="Fill 26" fill-rule="evenodd" style="fill:#FFFFFE" opacity="1" d="M360.68 213L402 22L391.32 22L350 213L360.68 213Z"></path><path id="Fill 27" fill-rule="evenodd" style="fill:#DAE2F0" opacity="1" d="M428 213L428 22L427 22L427 213L428 213Z"></path><path id="Fill 28" fill-rule="evenodd" style="fill:#E3ECFA" opacity="1" d="M439.22 24L438 24L438 29L440 29L439.22 24Z"></path><path id="Fill 29" fill-rule="evenodd" style="fill:#DAE2F0" opacity="1" d="M438 29L438 24L428 24L428 29L438 29Z"></path><path id="Fill 30" fill-rule="evenodd" style="fill:#E3ECFA" opacity="1" d="M378,24h12.52l-1.17,5.46h-11.08zM401.119,24h25.86v5.46h-27.03z"></path><path id="Fill 31" fill-rule="evenodd" style="fill:#EBF3FF" opacity="1" d="M401 24L390.2 24L389 29L399.8 29L401 24Z"></path><path id="Fill 32" fill-rule="evenodd" style="fill:#CCD3E0" opacity="1" d="M428 29L428 24L427 24L427 29L428 29Z"></path><path id="Fill 33" fill-rule="evenodd" style="fill:#E3ECFA" opacity="1" d="M439.22 43L438 43L438 48L440 48L439.22 43Z"></path><path id="Fill 34" fill-rule="evenodd" style="fill:#DAE2F0" opacity="1" d="M438 48L438 43L428 43L428 48L438 48Z"></path><path id="Fill 35" fill-rule="evenodd" style="fill:#E3ECFA" opacity="1" d="M379,43h7.58l-1.17,5.46h-6.14zM397.178,43h29.89v5.46h-31.06z"></path><path id="Fill 36" fill-rule="evenodd" style="fill:#EBF3FF" opacity="1" d="M397 43L386.2 43L385 48L395.8 48L397 43Z"></path><path id="Fill 37" fill-rule="evenodd" style="fill:#CCD3E0" opacity="1" d="M428 48L428 43L427 43L427 48L428 48Z"></path><path id="Fill 38" fill-rule="evenodd" style="fill:#E3ECFA" opacity="1" d="M439.22 62L438 62L438 67L440 67L439.22 62Z"></path><path id="Fill 39" fill-rule="evenodd" style="fill:#DAE2F0" opacity="1" d="M438 67L438 62L428 62L428 67L438 67Z"></path><path id="Fill 40" fill-rule="evenodd" style="fill:#E3ECFA" opacity="1" d="M380,62h2.64l-1.17,5.46h-1.2zM393.247,62h33.91v5.46h-35.09z"></path><path id="Fill 41" fill-rule="evenodd" style="fill:#EBF3FF" opacity="1" d="M393 62L382.2 62L381 67L391.8 67L393 62Z"></path><path id="Fill 42" fill-rule="evenodd" style="fill:#CCD3E0" opacity="1" d="M428 67L428 62L427 62L427 67L428 67Z"></path><path id="Fill 43" fill-rule="evenodd" style="fill:#E3ECFA" opacity="1" d="M439.22 81L438 81L438 86L440 86L439.22 81Z"></path><path id="Fill 44" fill-rule="evenodd" style="fill:#DAE2F0" opacity="1" d="M438 86L438 81L428 81L428 86L438 86Z"></path><path id="Fill 45" fill-rule="evenodd" style="fill:#E3ECFA" opacity="1" d="M427 81L389.17 81L388 86L427 86L427 81Z"></path><path id="Fill 46" fill-rule="evenodd" style="fill:#EBF3FF" opacity="1" d="M389 81L381 81L381.26 86L387.87 86L389 81Z"></path><path id="Fill 47" fill-rule="evenodd" style="fill:#CCD3E0" opacity="1" d="M428 86L428 81L427 81L427 86L428 86Z"></path><path id="Fill 48" fill-rule="evenodd" style="fill:#E3ECFA" opacity="1" d="M439.22 99L438 99L438 104L440 104L439.22 99Z"></path><path id="Fill 49" fill-rule="evenodd" style="fill:#DAE2F0" opacity="1" d="M438 104L438 99L428 99L428 104L438 104Z"></path><path id="Fill 50" fill-rule="evenodd" style="fill:#E3ECFA" opacity="1" d="M427 99L385.17 99L384 104L427 104L427 99Z"></path><path id="Fill 51" fill-rule="evenodd" style="fill:#EBF3FF" opacity="1" d="M384 99L381 99L381.24 104L382.95 104L384 99Z"></path><path id="Fill 52" fill-rule="evenodd" style="fill:#CCD3E0" opacity="1" d="M428 104L428 99L427 99L427 104L428 104Z"></path><path id="Fill 53" fill-rule="evenodd" style="fill:#E3ECFA" opacity="1" d="M439.22 118L438 118L438 123L440 123L439.22 118Z"></path><path id="Fill 54" fill-rule="evenodd" style="fill:#DAE2F0" opacity="1" d="M438 123L438 118L428 118L428 123L438 123Z"></path><path id="Fill 55" fill-rule="evenodd" style="fill:#E3ECFA" opacity="1" d="M426 118L382 118L382.11 120.03C382.93 121.19 383.62 122.23 384.11 123L426 123L426 118Z"></path><path id="Fill 56" fill-rule="evenodd" style="fill:#CCD3E0" opacity="1" d="M428 123L428 118L427 118L427 123L428 123Z"></path><path id="Fill 57" fill-rule="evenodd" style="fill:#E3ECFA" opacity="1" d="M439.22 34L438 34L438 39L440 39L439.22 34Z"></path><path id="Fill 58" fill-rule="evenodd" style="fill:#DAE2F0" opacity="1" d="M438 39L438 34L428 34L428 39L438 39Z"></path><path id="Fill 59" fill-rule="evenodd" style="fill:#E3ECFA" opacity="1" d="M378,34h10.05l-1.17,5.46h-8.61zM398.649,34h27.88v5.46h-29.05z"></path><path id="Fill 60" fill-rule="evenodd" style="fill:#EBF3FF" opacity="1" d="M399 34L388.2 34L387 39L397.8 39L399 34Z"></path><path id="Fill 61" fill-rule="evenodd" style="fill:#CCD3E0" opacity="1" d="M428 39L428 34L427 34L427 39L428 39Z"></path><path id="Fill 62" fill-rule="evenodd" style="fill:#E3ECFA" opacity="1" d="M439.22 53L438 53L438 58L440 58L439.22 53Z"></path><path id="Fill 63" fill-rule="evenodd" style="fill:#DAE2F0" opacity="1" d="M438 58L438 53L428 53L428 58L438 58Z"></path><path id="Fill 64" fill-rule="evenodd" style="fill:#E3ECFA" opacity="1" d="M379,53h5.11l-1.17,5.46h-3.68zM394.707,53h31.9v5.46h-33.07z"></path><path id="Fill 65" fill-rule="evenodd" style="fill:#EBF3FF" opacity="1" d="M395 53L384.2 53L383 58L393.8 58L395 53Z"></path><path id="Fill 66" fill-rule="evenodd" style="fill:#CCD3E0" opacity="1" d="M428 58L428 53L427 53L427 58L428 58Z"></path><path id="Fill 67" fill-rule="evenodd" style="fill:#E3ECFA" opacity="1" d="M439.22 71L438 71L438 76L440 76L439.22 71Z"></path><path id="Fill 68" fill-rule="evenodd" style="fill:#DAE2F0" opacity="1" d="M438 76L438 71L428 71L428 76L438 76Z"></path><path id="Fill 69" fill-rule="evenodd" style="fill:#E3ECFA" opacity="1" d="M390.767,71h35.93v5.46h-37.1zM380.005,71.003h0.17l-0.14,0.64z"></path><path id="Fill 70" fill-rule="evenodd" style="fill:#EBF3FF" opacity="1" d="M391 71L380.14 71L380 71.59L380.24 76L389.8 76L391 71Z"></path><path id="Fill 71" fill-rule="evenodd" style="fill:#CCD3E0" opacity="1" d="M428 76L428 71L427 71L427 76L428 76Z"></path><path id="Fill 72" fill-rule="evenodd" style="fill:#E3ECFA" opacity="1" d="M439.22 90L438 90L438 95L440 95L439.22 90Z"></path><path id="Fill 73" fill-rule="evenodd" style="fill:#DAE2F0" opacity="1" d="M438 95L438 90L428 90L428 95L438 95Z"></path><path id="Fill 74" fill-rule="evenodd" style="fill:#E3ECFA" opacity="1" d="M427 90L387.17 90L386 95L427 95L427 90Z"></path><path id="Fill 75" fill-rule="evenodd" style="fill:#EBF3FF" opacity="1" d="M387 90L381 90L381.27 95L385.79 95L387 90Z"></path><path id="Fill 76" fill-rule="evenodd" style="fill:#CCD3E0" opacity="1" d="M428 95L428 90L427 90L427 95L428 95Z"></path><path id="Fill 77" fill-rule="evenodd" style="fill:#E3ECFA" opacity="1" d="M439.22 109L438 109L438 114L440 114L439.22 109Z"></path><path id="Fill 78" fill-rule="evenodd" style="fill:#DAE2F0" opacity="1" d="M438 114L438 109L428 109L428 114L438 114Z"></path><path id="Fill 79" fill-rule="evenodd" style="fill:#E3ECFA" opacity="1" d="M427 109L382.73 109L382 112.09L382.1 114L427 114L427 109Z"></path><path id="Fill 80" fill-rule="evenodd" style="fill:#E9E9E4" opacity="1" d="M382.95 109L382.06 109L382.22 112L382.95 109Z"></path><path id="Fill 81" fill-rule="evenodd" style="fill:#CCD3E0" opacity="1" d="M428 114L428 109L427 109L427 114L428 114Z"></path><path id="Fill 82" fill-rule="evenodd" style="fill:#E3ECFA" opacity="1" d="M439.22 128L438 128L438 133L440 133L439.22 128Z"></path><path id="Fill 83" fill-rule="evenodd" style="fill:#DAE2F0" opacity="1" d="M438 133L438 128L428 128L428 133L438 133Z"></path><path id="Fill 84" fill-rule="evenodd" style="fill:#E3ECFA" opacity="1" d="M426 128L384 128C384.65 128.96 385.27 129.94 385.86 130.95C386.26 131.63 386.66 132.31 387.04 133L426 133L426 128Z"></path><path id="Fill 85" fill-rule="evenodd" style="fill:#CCD3E0" opacity="1" d="M428 133L428 128L427 128L427 133L428 133Z"></path><path id="Fill 86" fill-rule="evenodd" style="fill:#DDDED8" opacity="1" d="M431 328L431 235L400 235L400 328L431 328Z"></path><path id="Fill 87" fill-rule="evenodd" style="fill:#E3ECFA" opacity="1" d="M431 328L431 317L392 317L411.96 328L431 328Z"></path><path id="Fill 88" fill-rule="evenodd" style="fill:#DAE2F0" opacity="1" d="M338 328L338 235L307 235L307 328L338 328Z"></path><path id="Fill 89" fill-rule="evenodd" style="fill:#E3ECFA" opacity="1" d="M431 326L431 235L322 235L322 326L431 326Z"></path><path id="Fill 90" fill-rule="evenodd" style="fill:#E3ECFA" opacity="1" d="M361 317L322 317L322 328L341.04 328L361 317Z"></path><path id="Fill 91" fill-rule="evenodd" style="fill:#FCFEFF" opacity="1" d="M416 292L416 245L336 245L336 292L416 292Z"></path><path id="Fill 92" fill-rule="evenodd" style="fill:#FCFEFF" opacity="1" d="M416 319L416 297L336 297L336 319L416 319Z"></path><path id="Fill 93" fill-rule="evenodd" style="fill:#E4E4DE" opacity="1" d="M387 243L364 243C364 245.21 365.88 247 368.21 247L382.79 247C385.12 247 387 245.21 387 243Z"></path><path id="Fill 94" fill-rule="evenodd" style="fill:#E3ECFA" opacity="1" d="M387 295L364 295C364 297.21 365.88 299 368.21 299L382.79 299C385.12 299 387 297.21 387 295Z"></path><path id="Fill 95" fill-rule="evenodd" style="fill:#E3ECFA" opacity="1" d="M313 328L313 235L282 235L282 328L313 328Z"></path><path id="Fill 96" fill-rule="evenodd" style="fill:#E3ECFA" opacity="1" d="M314 328L314 317L275 317L294.96 328L314 328Z"></path><path id="Fill 97" fill-rule="evenodd" style="fill:#DAE2F0" opacity="1" d="M221 328L221 235L190 235L190 328L221 328Z"></path><path id="Fill 98" fill-rule="evenodd" style="fill:#E3ECFA" opacity="1" d="M313 326L313 235L204 235L204 326L313 326Z"></path><path id="Fill 99" fill-rule="evenodd" style="fill:#E3ECFA" opacity="1" d="M243 317L204 317L204 328L223.04 328L243 317Z"></path><path id="Fill 100" fill-rule="evenodd" style="fill:#FCFEFF" opacity="1" d="M299 292L299 245L219 245L219 292L299 292Z"></path><path id="Fill 101" fill-rule="evenodd" style="fill:#FCFEFF" opacity="1" d="M299 319L299 297L219 297L219 319L299 319Z"></path><path id="Fill 102" fill-rule="evenodd" style="fill:#E4E4DE" opacity="1" d="M270 243L247 243C247 245.21 248.88 247 251.21 247L265.79 247C268.12 247 270 245.21 270 243Z"></path><path id="Fill 103" fill-rule="evenodd" style="fill:#E3ECFA" opacity="1" d="M270 295L247 295C247 297.21 248.88 299 251.21 299L265.79 299C268.12 299 270 297.21 270 295Z"></path><path id="Fill 104" fill-rule="evenodd" style="fill:#DAE2F0" opacity="1" d="M430 235L430 231L204 231L204 235L430 235Z"></path><path id="Fill 105" fill-rule="evenodd" style="fill:#D4D5CF" opacity="1" d="M205 235L205 231L190 231L190 235L205 235Z"></path><path id="Fill 106" fill-rule="evenodd" style="fill:#DDDED8" opacity="1" d="M84.68,240.72c-1.45,-36.52 -2.99,-72.84 0.17,-91.16l5.15,-3.56c0,0 -1.13,3.42 -1.72,59.38c-0.26,24.43 -0.55,32.68 -0.73,34.91c-0.17,-1.99 -0.23,-1.12 -0.21,-0.25c0.01,0.25 0.02,0.5 0.04,0.68zM87.55,240.29c0.01,0.13 0.02,0.28 0.03,0.43h-0.08c0.02,-0.1 0.03,-0.25 0.05,-0.43zM87.55,240.29c-0.02,0.18 -0.03,0.33 -0.05,0.43h-0.12c-0.02,-0.18 -0.03,-0.43 -0.04,-0.68c-0.02,-0.87 0.04,-1.74 0.21,0.25zM87.5,240.72c-0.05,0.42 -0.1,0.31 -0.12,0z"></path><path id="Fill 107" fill-rule="evenodd" style="fill:#DDDED8" opacity="1" d="M86.49 187C88.78 170.25 92.99 135.38 106.53 133.21C134.26 128.78 145.28 59.97 137.63 63.1C118.15 71.07 100.22 90.55 92.53 110.73C84.83 130.9 85.72 154.05 86.49 187Z"></path><path id="Fill 108" fill-rule="evenodd" style="fill:#DDDED8" opacity="1" d="M85 196C86.82 188.53 93.83 176.59 102.23 172.82C119.44 165.11 132.25 140.99 117.61 141C104.7 141.01 95.85 153.02 90.44 161.6C85.04 170.18 85.15 180.85 85 196Z"></path><path id="Fill 109" fill-rule="evenodd" style="fill:#DAE2F0" opacity="1" d="M24.68 95.13C15.9 92.13 15.04 141.63 62.4 153.47C77.69 157.3 83.83 184.38 87 198C86.74 171.56 86.94 153 77.51 136.29C68.08 119.58 47.06 102.78 24.68 95.13Z"></path><path id="Fill 110" fill-rule="evenodd" style="fill:#DAE2F0" opacity="1" d="M46.09 161.12C40.27 161.51 39.63 183.3 72.03 191.72C81.85 194.26 85.82 211.35 87.86 220C87.68 203.2 89.55 186.55 83.49 175.93C77.42 165.32 60.92 160.13 46.09 161.12Z"></path><path id="Fill 111" fill-rule="evenodd" style="fill:#DAE2F0" opacity="1" d="M51.9 85.13C46.91 82.96 45.38 107.83 72.64 132.18C80.91 139.57 83.52 161.09 84.86 172C85.48 152.52 87.83 134.14 83.14 119.14C78.44 104.14 64.6 90.69 51.9 85.13Z"></path><path id="Fill 112" fill-rule="evenodd" style="fill:#E3ECFA" opacity="1" d="M105.34 240.75L107 223L66 223L67.66 240.75C68.24 254.27 76.5 255 86.5 255C96.5 255 104.76 254.27 105.34 240.75Z"></path><path id="Fill 113" fill-rule="evenodd" style="fill:#E3ECFA" opacity="1" d="M107 222L64 222L65.17 230L105.83 230L107 222Z"></path><path id="Fill 115" fill-rule="evenodd" style="fill:#E3ECFA" opacity="0.6" d="M250 350C142.87 350 56 355.15 56 361.5C56 367.85 142.87 373 250 373C357.13 373 444 367.85 444 361.5C444 355.15 357.13 350 250 350Z"></path><path id="Fill 117" fill-rule="evenodd" style="fill:#3F8CFF" opacity="1" d="M74 62.95L73.01 43L72 43.05L72.99 63L74 62.95Z"></path><path id="Fill 118" fill-rule="evenodd" style="fill:#3F8CFF" opacity="1" d="M74 79.95L73.67 70L73 70.05L73.33 80L74 79.95Z"></path><path id="Fill 119" fill-rule="evenodd" style="fill:#3F8CFF" opacity="1" d="M386.24 247C387.25 247 388.03 246.15 388 245.13L377.23 23.69C377.2 22.74 375.47 22 375.47 22L75.76 22C74.75 22 73.97 22.86 74 23.87L84.77 245.31C84.8 246.26 86.53 247 86.53 247L386.24 247Z"></path><path id="Fill 120" fill-rule="evenodd" style="fill:#F4F9FD" opacity="1" d="M366.77,243.37h-276.6c0,0 -1.71,-0.74 -1.77,-1.7l-10.4,-213.8c-0.06,-1.02 0.75,-1.87 1.77,-1.87h292.8c0,0 1.75,0.74 1.78,1.7l4.26,87.46c-2.07,-2.6 -4.41,-5.04 -6.64,-6.36c-1.62,-1.05 -3.52,-1.72 -5.56,-1.83c-4.06,-3.52 -3.34,-10.83 -2.26,-16.09l-11.03,6.16c0.84,3.52 0.93,7.8 -1.95,9.8c0,0 -1.05,0.06 -1.54,0.11c0,0 -3.6,0.43 -5.17,0.71l-1.17,0.27c0,0 -3.27,1.3 -5.14,2.71c-7.63,5.76 -13.32,17.96 -13.32,17.96l1.81,0.98c-1.69,1.86 -3.43,3.67 -5.23,5.45c-1.99,1.94 -3.97,3.76 -6.14,5.78l-2.07,-0.21c0,0 -2.13,-0.66 -3.25,-1.18c0,0 0.12,-2.5 0.15,-3.71l9.14,-0.31c0.54,-4.91 -0.21,-13.08 -1.41,-21.54c-1.05,-8.87 -2.86,-18.98 -4.75,-29.26l-9.11,0.57l-2.25,-46.37l-0.9,-0.84c-0.55,0.02 -0.91,0.93 -0.91,0.93l2.26,46.41l-37.34,2.37c0.12,0.5 0.33,1.5 0.33,1.5l0.54,2.41c1.48,6.72 2.59,13.24 3.4,19.5l-6.1,-0.96c0.12,17.98 -1.84,34.43 -4.96,47.37l48.07,9.02l3.12,64.05l0.9,0.85c0.55,-0.02 0.91,-0.93 0.91,-0.93l-3.37,-69.54c0.66,-3.52 1.2,-7.72 1.59,-12.15c0.33,0.15 0.99,0.44 0.99,0.44c1.24,0.47 2.62,0.89 4.18,1.06c2.59,0.09 5.17,-0.56 5.17,-0.56l0.69,-0.24l0.82,-0.68c2.31,-1.91 4.96,-4 7.36,-6.17c2.14,-1.89 4.24,-3.85 6.22,-5.93l0.06,3.36c0.03,0.57 0.06,1.72 0.06,1.72c0.31,7.85 1.06,17.5 2.5,29.35h7.49l-2.59,8.63l5.38,1.6c-0.03,0.16 -0.09,0.44 -0.09,0.44l5.8,1.26c3.43,14.52 8.72,38.82 12.3,54.97c0,0 0.81,3.7 1.17,5.33zM161.052,230.548c0,0 0.43,0.87 0.91,0.87l0.9,-0.95l-1.04,-21.53l25.34,-2.59c-0.13,-11.3 -5.93,-37.54 -9.38,-47.36l-18.29,2.16l-1.57,-32.15l5.69,-0.31c-2.56,-17.01 -4.42,-33.36 -4.96,-48.43l-3.09,0.12l-2.03,-41.56c0,0 -0.44,-0.87 -0.91,-0.87l-0.9,0.95l2.02,41.56l-42.27,1.62c-0.11,13.83 1.06,32.5 3.85,49.2l40.79,-2.19l1.57,32.29l-26.62,3.16c4.96,17.53 5.18,33.39 6.55,46.86l22.4,-2.29zM224.433,98.303l-48.55,-2.93v48.13l48.55,2.93zM379.871,140.923l-4.59,-1c0.04,-1.43 0.1,-2.89 0.17,-4.37l0.77,-0.78c1.33,1.99 2.56,4 3.64,6.03zM315.933,140.655l0.12,-0.08c-0.03,0.03 -0.07,0.05 -0.12,0.08zM383.363,212.809c-1.35,-7.75 -2.72,-15.38 -3.92,-21.95l2.9,0.86z"></path><g opacity="1" transform="translate(100.36312866210938 40.31536865234375)  rotate(-0.9999999465488009)"><text><tspan x="0" y="13.232" font-size="12" line-height="16" fill="#3F8CFF" opacity="1" font-family="SourceHanSansCN-Regular" font-weight="Regular" letter-spacing="0" >现在做</tspan></text></g><g opacity="1" transform="translate(172.36312866210938 40.31536865234375)  rotate(-0.9999999465488009)"><text><tspan x="0" y="13.232" font-size="12" line-height="16" fill="#3F8CFF" opacity="1" font-family="SourceHanSansCN-Regular" font-weight="Regular" letter-spacing="0" >进行中</tspan></text></g><g opacity="1" transform="translate(245.36312866210938 40.31536865234375)  rotate(-0.9999999465488009)"><text><tspan x="0" y="13.232" font-size="12" line-height="16" fill="#3F8CFF" opacity="1" font-family="SourceHanSansCN-Regular" font-weight="Regular" letter-spacing="0" >审查中</tspan></text></g><g opacity="1" transform="translate(317.3631286621094 40.31536865234375)  rotate(-0.9999999465488009)"><text><tspan x="0" y="13.232" font-size="12" line-height="16" fill="#3F8CFF" opacity="1" font-family="SourceHanSansCN-Regular" font-weight="Regular" letter-spacing="0" >已完成</tspan></text></g><path id="Fill 121" fill-rule="evenodd" style="fill:#3F8CFF" opacity="1" d="M163 230.05L153.79 38.87C153.79 38.87 153.33 37.98 152.85 38C152.36 38.02 152 38.95 152 38.95L161.21 230.13C161.21 230.13 161.63 231 162.1 231C162.64 230.98 163 230.05 163 230.05Z"></path><path id="Fill 122" fill-rule="evenodd" style="fill:#3F8CFF" opacity="1" d="M311 230.05L301.79 38.87C301.79 38.87 301.32 37.98 300.85 38C300.36 38.02 300 38.95 300 38.95L309.21 230.13C309.21 230.13 309.63 231 310.1 231C310.64 230.98 311 230.05 311 230.05Z"></path><path id="Fill 123" fill-rule="evenodd" style="fill:#3F8CFF" opacity="1" d="M237 230.05L227.79 38.87C227.79 38.87 227.34 37.98 226.85 38C226.36 38.02 226 38.95 226 38.95L235.21 230.13C235.21 230.13 235.63 231 236.1 231C236.64 230.98 237 230.05 237 230.05Z"></path><path id="Fill 124" fill-rule="evenodd" style="fill:#3F8CFF" opacity="1" d="M368 58C368 57.45 367.1 57 367.1 57L88.9 57C88.9 57 88 57.45 88 58C88 58.55 88.9 59 88.9 59L367.1 59C367.1 59 368 58.55 368 58Z"></path><path id="Fill 129" fill-rule="evenodd" style="fill:#DADFE4" opacity="1" d="M157.466,128.73l-2.37,-48.61l3.09,-0.12c0.55,15.08 2.41,31.41 4.96,48.42zM153.28,80.189l2.37,48.63l-40.79,2.2c-2.79,-16.69 -3.96,-35.37 -3.86,-49.2z"></path><path id="Fill 130" fill-rule="evenodd" style="fill:#B0C9DF" opacity="1" d="M158 128.9L155.74 80L154 80.07L156.27 129L158 128.9Z"></path><path id="Fill 131" fill-rule="evenodd" style="fill:#12499A" opacity="1" d="M159.06 78L111 80.61C111.44 96.14 113.17 112.31 115.94 129L164 126.4C161.45 109.4 159.6 93.07 159.06 78Z"></path><path id="Fill 132" fill-rule="evenodd" style="fill:#DADFE4" opacity="1" d="M225 97.93L176 95L176 143.07L225 146L225 97.93Z"></path><path id="Fill 133" fill-rule="evenodd" style="fill:#FFFFFE" opacity="1" d="M224 96.91L175.57 94L175 142.09L223.43 145L224 96.91Z"></path><path id="Fill 134" fill-rule="evenodd" style="fill:#DADFE4" opacity="1" d="M269.295,110.962l-0.38,-0.06c-0.81,-6.25 -1.93,-12.79 -3.38,-19.49c1.48,6.74 2.77,13.3 3.76,19.55zM309.934,135.53c0.03,-0.77 0.06,-1.53 0.08,-2.29l8.31,-0.43c0.55,-5.09 0.2,-11.68 -0.68,-19.13c1.23,8.47 1.95,16.64 1.42,21.55z"></path><path id="Fill 135" fill-rule="evenodd" style="fill:#6D5DD3" opacity="1" d="M318.74 132.57C319.94 121.36 316.82 103.01 313.31 84L265 87.08C269.03 104.86 271.93 121.51 271.72 135L318.74 132.57Z"></path><path id="Fill 136" fill-rule="evenodd" style="fill:#DADFE4" opacity="1" d="M177.719,159c3.44,9.83 9.25,36.07 9.38,47.36l-25.35,2.58l-2.32,-47.77zM137.55,211.398c-1.37,-13.45 -1.58,-29.33 -6.55,-46.85l26.62,-3.16l2.33,47.74z"></path><path id="Fill 137" fill-rule="evenodd" style="fill:#B0C9DF" opacity="1" d="M162 208.82L159.75 161L158 161.22L160.25 209L162 208.82Z"></path><path id="Fill 138" fill-rule="evenodd" style="fill:#FDC748" opacity="1" d="M186.94 204.84C187.53 193.67 183.43 175.65 178.9 157L131 162.65C134.88 180.1 138.63 196.61 139.15 210L186.94 204.84Z"></path><path id="Fill 139" fill-rule="evenodd" style="fill:#DADFE4" opacity="1" d="M303.94,145.39c0,0 0.77,0.57 1.17,0.86l0.98,20.14l-48.09,-9.02c3.14,-12.93 5.08,-29.39 4.98,-47.37l6.09,0.95c1.22,9.43 1.74,18.21 1.62,25.92l24.2,-0.79c0.62,0.84 1.21,1.58 1.86,2.34c0.72,0.83 1.44,1.66 2.2,2.46c1.53,1.59 3.17,3.11 4.99,4.51zM306.41,135.705l3.67,-0.12c-0.05,1.22 -0.1,2.46 -0.17,3.71c-0.5,-0.23 -1,-0.48 -1.5,-0.75c-0.64,-0.34 -1.27,-0.69 -1.91,-1.07zM303.82,135.79l0.78,-0.03l0.02,0.56c-0.27,-0.18 -0.53,-0.35 -0.8,-0.53zM306.983,147.474c0.71,0.43 1.46,0.83 2.26,1.2c-0.4,4.43 -0.94,8.64 -1.61,12.14z"></path><path id="Fill 140" fill-rule="evenodd" style="fill:#B0C9DF" opacity="1" d="M305,136.06l1.81,-0.06l0.09,1.77c-0.62,-0.37 -1.25,-0.76 -1.87,-1.16zM306.621,166.711l-0.13,-0.03l-0.98,-20.14c0.6,0.42 1.22,0.84 1.88,1.23l0.65,13.34c-0.42,2.17 -0.89,4.07 -1.42,5.6z"></path><path id="Fill 141" fill-rule="evenodd" style="fill:#719CC6" opacity="1" d="M294.63,135.85c0,0 0.13,0.19 0.2,0.28l-24.21,0.79c0.12,-7.72 -0.4,-16.49 -1.62,-25.92l0.37,0.06c1.4,8.8 2.2,16.99 2.08,24.27l25.11,-1.29zM310.096,133.345c-0.02,0.75 -0.05,1.52 -0.08,2.29l-3.67,0.12l-0.11,-2.21zM304.421,133.637l0.11,2.17l-0.78,0.03c-0.12,-0.08 -0.23,-0.15 -0.35,-0.23c-0.86,-0.56 -1.73,-1.17 -2.58,-1.78z"></path><path id="Fill 142" fill-rule="evenodd" style="fill:#83A9CE" opacity="1" d="M306 134.95L305.89 133L304 133.08L304.11 135L306 134.95Z"></path><path id="Fill 143" fill-rule="evenodd" style="fill:#3769A4" opacity="1" d="M296.29 133.72L298.31 131.86C299.04 132.4 299.8 132.96 300.56 133.51L304.18 133.32L306 133.23L309.87 133.03C310.07 126.61 310.03 120.85 309.79 117.29L269 111C270.4 119.7 271.2 127.8 271.08 135L296.29 133.72Z"></path><path id="Fill 144" fill-rule="evenodd" style="fill:#FFFFFE" opacity="1" d="M305.78 163C309.41 152.57 310.32 134.38 311 115.5L262.81 108C262.9 125.83 262.14 142.34 259 155.16L305.78 163Z"></path><path id="Fill 145" fill-rule="evenodd" style="fill:#BE5B52" opacity="1" d="M365 119.49L367.17 122.05C367.9 122.94 368.63 123.83 369.34 124.74C370.77 126.55 372.18 128.38 373.52 130.23C376.18 133.95 378.69 137.78 380.58 141.67L381.14 142.83L381.3 143.31L381.45 143.9C381.65 144.75 381.79 145.77 381.87 146.84C382.02 148.97 382.06 151.27 381.98 153.59C381.85 158.24 381.5 163.06 381.11 167.79L386.31 169C387.96 164.24 389.23 159.48 390.12 154.46C390.54 151.95 390.9 149.4 390.98 146.67C391.02 145.31 391.01 143.9 390.83 142.35C390.83 142.35 390.71 141.55 390.65 141.16C390.56 140.74 390.46 140.31 390.35 139.88L390.13 139.18L389.93 138.6L389.56 137.67C388.61 135.15 387.46 132.81 386.22 130.53C385.01 128.23 383.64 126.09 382.25 123.96C380.84 121.84 379.35 119.81 377.8 117.83C377.02 116.84 376.23 115.86 375.42 114.9C374.6 113.91 373.81 113.01 372.86 112L365 119.49Z"></path><path id="Fill 146" fill-rule="evenodd" style="fill:#BD5B52" opacity="1" d="M378 169.86L385.25 174C385.25 174 387.75 170.77 386.77 167.47L381.71 166L378 169.86Z"></path><path id="Fill 147" fill-rule="evenodd" style="fill:#BD5B52" opacity="1" d="M380.02 178L385 174.09L377.79 170L373 175.63L380.02 178Z"></path><path id="Fill 148" fill-rule="evenodd" style="fill:#3769A4" opacity="1" d="M403 146.02L357.03 136C352.73 150.46 349.45 165.84 347 181.97L392.97 192C395.73 175.64 398.94 160.09 403 146.02Z"></path><path id="Fill 149" fill-rule="evenodd" style="fill:#FFFFFE" opacity="1" d="M400 148.31L355.31 135L342 179.69L386.69 193L400 148.31Z"></path><path id="Fill 150" fill-rule="evenodd" style="fill:#132529" opacity="1" d="M345.54 81C345.27 80.99 345.02 81.42 345 81.97C344.98 82.53 345.18 82.99 345.46 83C345.73 83.01 345.98 82.58 346 82.03C346.02 81.48 345.82 81.02 345.54 81Z"></path><path id="Fill 151" fill-rule="evenodd" style="fill:#A92D2F" opacity="1" d="M343 88.24C343.96 89.33 345.71 88.93 345.71 88.93L346 83C346 83 344.52 86.56 343 88.24Z"></path><path id="Fill 152" fill-rule="evenodd" style="fill:#132529" opacity="1" d="M348.93 78.91C349.04 78.8 349.02 78.64 348.89 78.56C347.59 77.72 346.26 78.07 346.21 78.09C346.05 78.13 345.96 78.27 346.01 78.4C346.07 78.53 346.24 78.6 346.39 78.55C346.44 78.54 347.48 78.28 348.51 78.95C348.58 78.99 348.66 79.01 348.74 79L348.93 78.91Z"></path><path id="Fill 153" fill-rule="evenodd" style="fill:#BD5B52" opacity="1" d="M353.06 97.04C354.03 101.05 354.01 106.04 349.49 107.4C349.49 107.4 343.81 112 354.64 112C364.48 112 366 106.76 366 106.76C362.34 103.32 363.06 96.16 364.17 91L353.06 97.04Z"></path><path id="Fill 154" fill-rule="evenodd" style="fill:#3769A4" opacity="1" d="M341.21,354.73c-0.92,0 -1.81,-0.12 -2.11,-0.54c-0.1,-0.14 -0.18,-0.39 0.03,-0.74c0.11,-0.2 0.3,-0.34 0.54,-0.4c1.154,-0.317 3.51,1.002 3.787,1.157c0.011,0.006 0.019,0.011 0.023,0.013l0.08,0.17l-0.14,0.14c-0.46,0.09 -1.35,0.2 -2.21,0.2zM339.761,353.378c-0.16,0.04 -0.27,0.12 -0.34,0.24c-0.12,0.21 -0.08,0.31 -0.04,0.37c0.33,0.47 2.15,0.48 3.49,0.29c-0.66,-0.34 -1.94,-0.94 -2.78,-0.94c-0.12,0 -0.23,0.01 -0.33,0.04z"></path><path id="Fill 155" fill-rule="evenodd" style="fill:#3769A4" opacity="1" d="M343.5,354.26l-0.07,-0.02c-0.86,-0.39 -2.56,-1.94 -2.42,-2.76c0.03,-0.19 0.17,-0.42 0.64,-0.47c0.35,-0.04 0.66,0.06 0.94,0.29c0.91,0.75 1.07,2.69 1.08,2.77l-0.07,0.16zM341.68,351.351c-0.31,0.03 -0.33,0.15 -0.34,0.19c-0.08,0.48 1.07,1.71 1.95,2.24c-0.08,-0.57 -0.32,-1.73 -0.92,-2.22c-0.18,-0.15 -0.37,-0.22 -0.59,-0.22z"></path><path id="Fill 156" fill-rule="evenodd" style="fill:#BD5B52" opacity="1" d="M351.48 337L344 337L344.52 354L352 354L351.48 337Z"></path><path id="Fill 157" fill-rule="evenodd" style="fill:#0A1629" opacity="1" d="M342.57 353.55C337.72 356.48 334.14 356.61 328.56 357.82C327.33 358.08 328.11 361 331.03 361C335.85 361 338.45 360.78 342.57 360.78C346.09 360.78 350.14 360.94 352.94 360.99C353.61 361 354.11 360.38 353.98 359.74L352.65 353.48C352.59 353.2 352.34 353 352.06 353L344.29 353C343.67 353 343.1 353.23 342.57 353.55Z"></path><path id="Fill 158" fill-rule="evenodd" style="fill:#3769A4" opacity="1" d="M364.1 124.97C368.05 132.79 375.16 136 375.16 136L386 125.28C386 125.28 376.22 108.07 369.22 108C362.07 107.92 359.96 116.77 364.1 124.97Z"></path><path id="Fill 159" fill-rule="evenodd" style="fill:#3A81EB" opacity="1" d="M383.49 127.34L385 125.74C385 125.74 378.15 112.75 372 109C374.96 111.04 376.88 114.55 376.87 118.43C376.87 118.93 376.84 119.45 376.77 119.96C376.05 125.46 375.62 130.86 375.38 136L383.49 127.34Z"></path><path id="Fill 160" fill-rule="evenodd" style="fill:#3769A4" opacity="1" d="M337.6 170L375.8 170C376.09 164.91 373.64 142.71 376.9 118.87C377.78 112.44 372.96 106.61 366.48 106.26L366.06 106.24C361.19 106 354.12 105.85 349.83 106.24C348.03 106.4 346.27 106.66 344.7 106.94C340.55 107.67 337.28 110.88 336.44 115.02C334.89 122.74 333.77 138.6 337.6 170Z"></path><path id="Fill 161" fill-rule="evenodd" style="fill:#3F8CFF" opacity="1" d="M376.096,170.43h-38.49c-1.45,-11.86 -2.19,-21.51 -2.48,-29.35c3.87,-0.98 8.27,-4.41 9.79,-8.63c3.46,-3.51 7.77,-9.04 8.18,-15.16c0.02,-0.34 0.03,-0.99 0.03,-0.99c0,-5.1 -2.65,-9.41 -7.24,-9.41c-0.72,0 -1.49,0.11 -2.3,0.33c0.38,-0.11 0.77,-0.2 1.17,-0.27c1.59,-0.29 3.36,-0.54 5.17,-0.71c1.91,-0.18 4.36,-0.24 6.93,-0.24c3.25,0 6.68,0.11 9.43,0.24l0.42,0.02c6.01,0.33 10.6,5.33 10.6,11.18c0,0.5 -0.03,1.01 -0.11,1.52c-1.34,9.82 -1.72,19.36 -1.72,27.56c0,10.67 0.64,19.06 0.64,22.83c0,0.42 -0.02,1.08 -0.02,1.08zM335.071,139.365c-0.03,-1.16 -0.06,-2.28 -0.07,-3.37c0.03,-0.03 0.07,-0.06 0.1,-0.1c-0.06,1.07 -0.06,2.23 -0.03,3.47z"></path><path id="Fill 162" fill-rule="evenodd" style="fill:#9AA9B8" opacity="1" d="M334.47 140C334.49 140.65 334.51 141.32 334.53 142C334.51 141.32 334.49 140.66 334.47 140Z"></path><path id="Fill 163" fill-rule="evenodd" style="fill:#3576D6" opacity="1" d="M345 133C342.58 135.53 340.57 137.04 340.57 137.04L336.66 134.84C336.41 135.12 336.16 135.4 335.9 135.67C335.62 135.98 335.34 136.29 335.05 136.59C334.99 137.72 334.99 138.93 335.02 140.22C335.04 140.8 335.06 141.4 335.08 142C339 140.98 343.46 137.4 345 133Z"></path><path id="Fill 165" fill-rule="evenodd" style="fill:#914642" opacity="1" d="M350.76 337L344 337L344.24 346L351 346L350.76 337Z"></path><path id="Fill 166" fill-rule="evenodd" style="fill:#BD5B52" opacity="1" d="M352.91 71.6C345.72 74.14 344.17 84.6 345.37 91.02C346.7 98.15 355.4 101.75 361.16 96.51C364.99 93.02 365.11 88.85 365.93 81.79C366.76 74.73 360 69.1 352.91 71.6Z"></path><path id="Fill 167" fill-rule="evenodd" style="fill:#233862" opacity="1" d="M355.51 92.2C355.01 94.47 358.73 98.4 364.62 96.49C370.52 94.58 369.78 86.63 369.78 86.63C369.78 86.63 372.54 85.43 373.79 82.05C375.05 78.66 370.2 74.12 370.2 74.12C370.2 74.12 371.49 70.61 368.23 66.51C364.55 61.88 362.81 67.61 362.81 67.61C362.81 67.61 360.43 65.07 355.03 63.37C349.75 61.7 347.89 66.12 348.73 67.77C346.14 67.65 343.13 70.62 344.24 73.09C345.2 75.25 348.1 76.69 350.11 77.67C347.86 79.66 348.86 84.81 351.07 84.32C347.81 87.37 351.69 92.41 355.51 92.2Z"></path><path id="Fill 168" fill-rule="evenodd" style="fill:#BD5B52" opacity="1" d="M350.71 81.23C348.65 82.12 347.89 85.44 348.01 87.45C348.15 89.68 349.77 90.91 351.52 89.19C352.69 88.04 353.71 86.25 353.97 84.29C354.25 82.05 352.74 80.36 350.71 81.23Z"></path><path id="Fill 169" fill-rule="evenodd" style="fill:#BD5B52" opacity="1" d="M406.52 328L400 330.32L406.48 347L413 344.68L406.52 328Z"></path><path id="Fill 170" fill-rule="evenodd" style="fill:#3769A4" opacity="1" d="M403.44,347.81c-0.72,0.57 -1.5,1.02 -1.99,0.87c-0.17,-0.05 -0.39,-0.19 -0.44,-0.6c-0.03,-0.22 0.03,-0.44 0.18,-0.65c0.74,-0.99 3.59,-1.41 3.71,-1.43l0.17,0.09l-0.02,0.19c-0.3,0.36 -0.93,1 -1.61,1.53zM401.458,347.644c-0.1,0.13 -0.13,0.26 -0.12,0.39c0.04,0.24 0.14,0.3 0.21,0.32c0.54,0.16 1.98,-0.95 2.92,-1.93c-0.74,0.14 -2.11,0.46 -2.77,0.98c-0.1,0.07 -0.18,0.15 -0.24,0.24z"></path><path id="Fill 171" fill-rule="evenodd" style="fill:#3769A4" opacity="1" d="M404.74,346.76l-0.07,0.04c-0.92,0.22 -3.22,0.05 -3.61,-0.68c-0.09,-0.17 -0.13,-0.44 0.21,-0.77c0.26,-0.24 0.56,-0.36 0.92,-0.35c1.18,0.03 2.51,1.45 2.57,1.51l0.04,0.17zM401.51,345.604c-0.23,0.21 -0.17,0.32 -0.15,0.35c0.24,0.44 1.9,0.69 2.92,0.56c-0.42,-0.39 -1.32,-1.15 -2.1,-1.17c-0.23,-0.01 -0.43,0.06 -0.6,0.19z"></path><path id="Fill 172" fill-rule="evenodd" style="fill:#0A1629" opacity="1" d="M404.53 346.35C404.11 349.24 403.41 351.93 400.12 356.46C399.4 357.45 402.05 359.01 404.22 357.09C407.81 353.91 405.43 355.72 408.49 353.02C411.11 350.7 415.39 347.26 417.61 345.58C418.14 345.18 418.13 344.41 417.59 344.01L412.37 340.13C412.14 339.96 411.81 339.96 411.58 340.13L405.51 344.89C405.03 345.27 404.62 345.77 404.53 346.35Z"></path><path id="Fill 173" fill-rule="evenodd" style="fill:#BD5B52" opacity="1" d="M297.31 127L290 131.55C290 131.55 292.41 136.5 297.4 135.96L300 132.81L297.31 127Z"></path><path id="Fill 174" fill-rule="evenodd" style="fill:#BD5B52" opacity="1" d="M288.88 127.08C287.74 128.04 287.7 129.75 288.8 130.75L290.16 132L298 127.25L293.29 125.21C292.4 124.83 291.36 124.98 290.63 125.6L288.88 127.08Z"></path><path id="Fill 176" fill-rule="evenodd" style="fill:#914642" opacity="1" d="M410 337.58L408.26 333L402 336.45L403.24 339.71L403.35 340L410 337.58Z"></path><path id="Fill 177" fill-rule="evenodd" style="fill:#0A1629" opacity="1" d="M367.68 246.99C372.74 269.51 399.32 338 399.32 338L411 331.69C411 331.69 398.51 277.96 389.38 248.64C386.08 224.42 375.95 171 375.95 171L351 171C351 171 363.07 226.41 367.68 246.99Z"></path><path id="Fill 178" fill-rule="evenodd" style="fill:#3F8CFF" opacity="1" d="M398.42 339L413 333.48L411.84 329L396 334.4L398.42 339Z"></path><path id="Fill 179" fill-rule="evenodd" style="fill:#A0A29F" opacity="1" d="M367.62 247.92C367.54 247.61 367.46 247.3 367.39 247C367.39 247 367.39 247 367.39 247C367.46 247.32 367.54 247.66 367.61 248C367.61 247.97 367.61 247.95 367.62 247.92Z"></path><path id="Fill 180" fill-rule="evenodd" style="fill:#939692" opacity="1" d="M367.43 247.21C367.47 247.4 367.52 247.59 367.56 247.79C367.57 247.79 367.57 247.79 367.57 247.8C367.52 247.6 367.48 247.4 367.43 247.21Z"></path><path id="Fill 181" fill-rule="evenodd" style="fill:#1D5697" opacity="1" d="M367.89 246.92C367.65 245.72 367.38 244.41 367.1 243L367.09 243C367.38 244.41 367.64 245.72 367.89 246.92C367.89 246.95 367.9 246.97 367.9 247L367.91 247C367.9 246.97 367.89 246.95 367.89 246.92Z"></path><path id="Fill 182" fill-rule="evenodd" style="fill:#8593A0" opacity="1" d="M366 238C366.35 239.78 366.69 241.46 367 243C366.69 241.46 366.36 239.78 366 238Z"></path><path id="Fill 183" fill-rule="evenodd" style="fill:#000000" opacity="1" d="M358.4 196.04C358.23 196.01 358.06 196 357.9 196C357.58 196 357.28 196.05 357 196.14C359.83 209.62 363.21 225.71 365.72 237.49C366.12 239.38 366.5 241.17 366.86 242.82C367.13 244.1 367.39 245.3 367.64 246.46C367.64 246.46 367.72 246.86 367.77 247.05C367.84 247.36 367.91 247.68 367.99 248C368.14 229.19 367.15 197.25 358.4 196.04Z"></path><path id="Fill 184" fill-rule="evenodd" style="fill:#0A1629" opacity="1" d="M335.06 246.62C335.58 269.4 342.01 344 342.01 344L354.24 344C354.24 344 356.24 270.73 357.07 248.35C357.98 223.96 363 171 363 171L337.62 171C337.62 171 334.55 224.7 335.06 246.62Z"></path><path id="Fill 185" fill-rule="evenodd" style="fill:#3F8CFF" opacity="1" d="M339.63 344L354.54 344L355 339.54L339 339L339.63 344Z"></path><path id="Fill 186" fill-rule="evenodd" style="fill:#BE5B52" opacity="1" d="M348,119.37c-1.66,2.96 -3.56,5.75 -5.55,8.46c-2.02,2.68 -4.21,5.22 -6.5,7.63c-2.29,2.41 -4.69,4.69 -7.16,6.85c-2.44,2.17 -5.06,4.24 -7.38,6.13l-0.83,0.67l-0.67,0.24c-1.79,0.64 -3.61,0.75 -5.18,0.57c-1.57,-0.18 -2.94,-0.59 -4.17,-1.07c-2.48,-0.98 -4.47,-2.3 -6.31,-3.68c-1.82,-1.4 -3.47,-2.9 -4.99,-4.48c-0.77,-0.79 -1.49,-1.61 -2.2,-2.44c-0.72,-0.83 -1.37,-1.65 -2.06,-2.59l3.95,-3.67c1.54,1.14 3.18,2.36 4.83,3.42c1.64,1.09 3.3,2.11 4.95,2.97c1.63,0.86 3.31,1.56 4.77,1.92c0.73,0.19 1.89,0.23 1.89,0.23c0.07,-0.01 0.13,-0.01 0.19,-0.02c-0.24,0.22 -0.48,0.45 -0.73,0.68l1.5,-0.92c0,0 -0.34,0.17 -0.77,0.24c2.16,-2 4.14,-3.83 6.13,-5.75c2.18,-2.12 4.27,-4.29 6.26,-6.53c1.98,-2.25 3.89,-4.54 5.65,-6.91c1.78,-2.37 3.37,-4.83 4.9,-7.32zM314.85,141.19l1.5,-0.92c0,0 -0.34,0.17 -0.77,0.24c-0.24,0.22 -0.48,0.45 -0.73,0.68z"></path><path id="Fill 187" fill-rule="evenodd" style="fill:#3769A4" opacity="1" d="M338.32 109.99C330.68 115.66 325 127.68 325 127.68L340.41 136C340.41 136 352.28 127.44 352.97 117.24C353.49 109.48 347.77 102.98 338.32 109.99Z"></path><path id="Fill 188" fill-rule="evenodd" style="fill:#3F8CFF" opacity="1" d="M352.97 117.24C352.99 116.91 353 116.59 353 116.26C353 111.25 350.35 107 345.75 107C343.66 107 341.16 107.89 338.32 109.99C330.68 115.66 325 127.68 325 127.68L326.81 128.66L340.41 136C340.41 136 352.28 127.44 352.97 117.24Z"></path></g></svg>